AmstelvarA2-Roman_XLCS172.ufo
<glyph name="period" format="2">
  <advance width="824"/>
  <unicode hex="002E"/>
  <outline>
    <contour>
      <point x="268" y="121" type="qcurve" smooth="yes"/>
      <point x="268" y="179"/>
      <point x="349" y="265"/>
      <point x="412" y="265" type="qcurve" smooth="yes"/>
      <point x="475" y="265"/>
      <point x="556" y="179"/>
      <point x="556" y="121" type="qcurve" smooth="yes"/>
      <point x="556" y="64"/>
      <point x="475" y="-22"/>
      <point x="412" y="-22" type="qcurve"/>
      <point x="349" y="-22"/>
      <point x="268" y="64"/>
    </contour>
  </outline>
</glyph>
<glyph name="f" format="2">
  <advance width="868"/>
  <unicode hex="0066"/>
  <anchor x="434" y="0" name="bottom"/>
  <anchor x="434" y="1536" name="top"/>
  <outline>
    <contour>
      <point x="174" y="0" type="line"/>
      <point x="174" y="80" type="line"/>
      <point x="342" y="115" type="line"/>
      <point x="344" y="527" type="line"/>
      <point x="341" y="868" type="line"/>
      <point x="183" y="873" type="line"/>
      <point x="183" y="966" type="line"/>
      <point x="343" y="984" type="line"/>
      <point x="347" y="1293" type="line" smooth="yes"/>
      <point x="348" y="1402"/>
      <point x="480" y="1537"/>
      <point x="580" y="1537" type="qcurve" smooth="yes"/>
      <point x="622" y="1537"/>
      <point x="691" y="1526"/>
      <point x="720" y="1518" type="qcurve" smooth="yes"/>
      <point x="739" y="1512" type="line"/>
      <point x="723" y="1416" type="line"/>
      <point x="704" y="1420" type="line" smooth="yes"/>
      <point x="692" y="1423"/>
      <point x="663" y="1425"/>
      <point x="644" y="1425" type="qcurve" smooth="yes"/>
      <point x="575" y="1425"/>
      <point x="502" y="1331"/>
      <point x="503" y="1258" type="qcurve" smooth="yes"/>
      <point x="505" y="985" type="line"/>
      <point x="722" y="985" type="line"/>
      <point x="722" y="874" type="line"/>
      <point x="505" y="874" type="line"/>
      <point x="507" y="527" type="line"/>
      <point x="514" y="115" type="line"/>
      <point x="704" y="80" type="line"/>
      <point x="704" y="0" type="line"/>
    </contour>
  </outline>
</glyph>
<glyph name="micro" format="2">
  <advance width="1438"/>
  <unicode hex="00B5"/>
  <outline>
    <contour>
      <point x="105" y="-317" type="line"/>
      <point x="141" y="-295" type="line"/>
      <point x="180" y="-137"/>
      <point x="241" y="112"/>
      <point x="253" y="181" type="qcurve" smooth="yes"/>
      <point x="365" y="822" type="line"/>
      <point x="223" y="819" type="line"/>
      <point x="225" y="915" type="line"/>
      <point x="454" y="1002" type="line"/>
      <point x="499" y="1002" type="line"/>
      <point x="541" y="923" type="line"/>
      <point x="424" y="312" type="line" smooth="yes"/>
      <point x="408" y="229"/>
      <point x="461" y="167"/>
      <point x="538" y="167" type="qcurve" smooth="yes"/>
      <point x="631" y="167"/>
      <point x="841" y="285"/>
      <point x="902" y="352" type="qcurve"/>
      <point x="1016" y="976" type="line"/>
      <point x="1007" y="1000" type="line"/>
      <point x="1136" y="1021" type="line"/>
      <point x="1178" y="942" type="line"/>
      <point x="1061" y="362" type="line"/>
      <point x="1035" y="134" type="line"/>
      <point x="1171" y="134" type="line"/>
      <point x="1173" y="47" type="line"/>
      <point x="919" y="-15" type="line"/>
      <point x="877" y="76" type="line"/>
      <point x="885" y="215" type="line"/>
      <point x="808" y="136"/>
      <point x="577" y="23"/>
      <point x="478" y="23" type="qcurve" smooth="yes"/>
      <point x="445" y="23"/>
      <point x="395" y="36"/>
      <point x="370" y="48" type="qcurve"/>
      <point x="313" y="-274" type="line"/>
      <point x="459" y="-282" type="line"/>
      <point x="451" y="-371" type="line"/>
      <point x="128" y="-399" type="line"/>
    </contour>
  </outline>
</glyph>
<glyph name="ae" format="2">
  <advance width="1930"/>
  <unicode hex="00E6"/>
  <anchor x="960" y="1000" name="top"/>
  <outline>
    <contour>
      <point x="202" y="247" type="qcurve" smooth="yes"/>
      <point x="202" y="384"/>
      <point x="508" y="573"/>
      <point x="857" y="621" type="qcurve"/>
      <point x="866" y="534" type="line"/>
      <point x="638" y="505"/>
      <point x="382" y="391"/>
      <point x="382" y="256" type="qcurve" smooth="yes"/>
      <point x="382" y="182"/>
      <point x="465" y="98"/>
      <point x="551" y="98" type="qcurve" smooth="yes"/>
      <point x="645" y="98"/>
      <point x="832" y="195"/>
      <point x="879" y="258" type="qcurve"/>
      <point x="864" y="287"/>
      <point x="838" y="426"/>
      <point x="838" y="486" type="qcurve" smooth="yes"/>
      <point x="838" y="617" type="line" smooth="yes"/>
      <point x="838" y="793"/>
      <point x="729" y="906"/>
      <point x="634" y="906" type="qcurve" smooth="yes"/>
      <point x="544" y="906"/>
      <point x="429" y="862"/>
      <point x="397" y="832" type="qcurve"/>
      <point x="418" y="811"/>
      <point x="442" y="767"/>
      <point x="445" y="747" type="qcurve" smooth="yes"/>
      <point x="452" y="708"/>
      <point x="408" y="653"/>
      <point x="366" y="653" type="qcurve" smooth="yes"/>
      <point x="324" y="653"/>
      <point x="272" y="730"/>
      <point x="272" y="795" type="qcurve" smooth="yes"/>
      <point x="272" y="888"/>
      <point x="489" y="1023"/>
      <point x="645" y="1023" type="qcurve" smooth="yes"/>
      <point x="779" y="1023"/>
      <point x="922" y="925"/>
      <point x="949" y="854" type="qcurve"/>
      <point x="955" y="854" type="line"/>
      <point x="989" y="913"/>
      <point x="1180" y="1022"/>
      <point x="1308" y="1022" type="qcurve" smooth="yes"/>
      <point x="1503" y="1022"/>
      <point x="1717" y="793"/>
      <point x="1737" y="588" type="qcurve"/>
      <point x="1737" y="528" type="line"/>
      <point x="975" y="528" type="line"/>
      <point x="975" y="624" type="line"/>
      <point x="1569" y="624" type="line"/>
      <point x="1551" y="763"/>
      <point x="1404" y="908"/>
      <point x="1292" y="908" type="qcurve" smooth="yes"/>
      <point x="1154" y="908"/>
      <point x="999" y="700"/>
      <point x="1000" y="520" type="qcurve" smooth="yes"/>
      <point x="1001" y="319"/>
      <point x="1202" y="108"/>
      <point x="1366" y="108" type="qcurve" smooth="yes"/>
      <point x="1469" y="108"/>
      <point x="1604" y="151"/>
      <point x="1649" y="188" type="qcurve"/>
      <point x="1700" y="128" type="line"/>
      <point x="1653" y="65"/>
      <point x="1477" y="-22"/>
      <point x="1346" y="-22" type="qcurve" smooth="yes"/>
      <point x="1172" y="-22"/>
      <point x="973" y="100"/>
      <point x="935" y="172" type="qcurve"/>
      <point x="882" y="110"/>
      <point x="646" y="-16"/>
      <point x="496" y="-16" type="qcurve" smooth="yes"/>
      <point x="345" y="-16"/>
      <point x="202" y="142"/>
    </contour>
  </outline>
</glyph>
<glyph name="idotless" format="2">
  <advance width="879"/>
  <unicode hex="0131"/>
  <anchor x="440" y="0" name="bottom"/>
  <anchor x="440" y="1000" name="top"/>
  <anchor x="633" y="0" name="ogonek"/>
  <outline>
    <contour>
      <point x="197" y="0" type="line"/>
      <point x="197" y="80" type="line"/>
      <point x="365" y="115" type="line"/>
      <point x="367" y="527" type="line"/>
      <point x="360" y="842" type="line"/>
      <point x="192" y="872" type="line"/>
      <point x="192" y="966" type="line"/>
      <point x="470" y="1000" type="line"/>
      <point x="517" y="1000" type="line"/>
      <point x="540" y="961" type="line"/>
      <point x="533" y="527" type="line"/>
      <point x="535" y="115" type="line"/>
      <point x="703" y="80" type="line"/>
      <point x="703" y="0" type="line"/>
    </contour>
  </outline>
</glyph>
<glyph name="acutecomb" format="2">
  <advance width="1469"/>
  <unicode hex="0301"/>
  <anchor x="734" y="1000" name="_top"/>
  <anchor x="734" y="1524" name="top"/>
  <outline>
    <contour>
      <point x="969" y="1446" type="qcurve" smooth="yes"/>
      <point x="969" y="1399"/>
      <point x="929" y="1357"/>
      <point x="888" y="1329" type="qcurve" smooth="yes"/>
      <point x="616" y="1150" type="line"/>
      <point x="542" y="1226" type="line"/>
      <point x="722" y="1425" type="line" smooth="yes"/>
      <point x="756" y="1463"/>
      <point x="837" y="1524"/>
      <point x="874" y="1524" type="qcurve" smooth="yes"/>
      <point x="908" y="1524"/>
      <point x="969" y="1481"/>
    </contour>
  </outline>
</glyph>
<glyph name="dieresisbelowcomb" format="2">
  <advance width="1469"/>
  <unicode hex="0324"/>
  <anchor x="734" y="0" name="_bottom"/>
  <anchor x="734" y="-441" name="bottom"/>
  <outline>
    <contour>
      <point x="388" y="-328" type="qcurve" smooth="yes"/>
      <point x="388" y="-273"/>
      <point x="448" y="-214"/>
      <point x="504" y="-214" type="qcurve" smooth="yes"/>
      <point x="557" y="-214"/>
      <point x="620" y="-277"/>
      <point x="620" y="-328" type="qcurve" smooth="yes"/>
      <point x="620" y="-382"/>
      <point x="561" y="-441"/>
      <point x="504" y="-441" type="qcurve" smooth="yes"/>
      <point x="451" y="-441"/>
      <point x="388" y="-379"/>
    </contour>
    <contour>
      <point x="848" y="-328" type="qcurve" smooth="yes"/>
      <point x="848" y="-273"/>
      <point x="908" y="-214"/>
      <point x="964" y="-214" type="qcurve" smooth="yes"/>
      <point x="1017" y="-214"/>
      <point x="1080" y="-277"/>
      <point x="1080" y="-328" type="qcurve" smooth="yes"/>
      <point x="1080" y="-382"/>
      <point x="1021" y="-441"/>
      <point x="964" y="-441" type="qcurve" smooth="yes"/>
      <point x="911" y="-441"/>
      <point x="848" y="-379"/>
    </contour>
  </outline>
</glyph>
<glyph name="commaaccentcomb" format="2">
  <advance width="1469"/>
  <unicode hex="0326"/>
  <anchor x="734" y="0" name="_bottom"/>
  <anchor x="734" y="-700" name="bottom"/>
  <outline>
    <contour>
      <point x="584" y="-638" type="line"/>
      <point x="624" y="-608"/>
      <point x="729" y="-493"/>
      <point x="743" y="-433" type="qcurve"/>
      <point x="684" y="-432"/>
      <point x="607" y="-360"/>
      <point x="607" y="-303" type="qcurve" smooth="yes"/>
      <point x="607" y="-247"/>
      <point x="685" y="-165"/>
      <point x="746" y="-165" type="qcurve" smooth="yes"/>
      <point x="803" y="-165"/>
      <point x="885" y="-238"/>
      <point x="885" y="-312" type="qcurve" smooth="yes"/>
      <point x="885" y="-429"/>
      <point x="732" y="-641"/>
      <point x="637" y="-700" type="qcurve"/>
    </contour>
  </outline>
</glyph>
<glyph name="delta" format="2">
  <advance width="1334"/>
  <unicode hex="03B4"/>
  <outline>
    <contour>
      <point x="665" y="-22" type="qcurve" smooth="yes"/>
      <point x="456" y="-22"/>
      <point x="184" y="226"/>
      <point x="184" y="448" type="qcurve"/>
      <point x="184" y="608"/>
      <point x="371" y="855"/>
      <point x="567" y="915" type="qcurve"/>
      <point x="567" y="922" type="line"/>
      <point x="469" y="971"/>
      <point x="312" y="1122"/>
      <point x="312" y="1228" type="qcurve"/>
      <point x="312" y="1378"/>
      <point x="540" y="1537"/>
      <point x="708" y="1537" type="qcurve"/>
      <point x="840" y="1537"/>
      <point x="1017" y="1478"/>
      <point x="1074" y="1432" type="qcurve"/>
      <point x="1054" y="1156" type="line"/>
      <point x="957" y="1156" type="line"/>
      <point x="909" y="1356" type="line"/>
      <point x="887" y="1389"/>
      <point x="787" y="1426"/>
      <point x="708" y="1426" type="qcurve"/>
      <point x="595" y="1426"/>
      <point x="468" y="1330"/>
      <point x="468" y="1257" type="qcurve"/>
      <point x="468" y="1175"/>
      <point x="603" y="1063"/>
      <point x="781" y="965" type="qcurve" smooth="yes"/>
      <point x="970" y="861"/>
      <point x="1150" y="595"/>
      <point x="1150" y="446" type="qcurve" smooth="yes"/>
      <point x="1150" y="229"/>
      <point x="885" y="-22"/>
    </contour>
    <contour>
      <point x="662" y="88" type="qcurve" smooth="yes"/>
      <point x="809" y="88"/>
      <point x="978" y="273"/>
      <point x="978" y="446" type="qcurve"/>
      <point x="978" y="568"/>
      <point x="833" y="778"/>
      <point x="669" y="862" type="qcurve"/>
      <point x="501" y="805"/>
      <point x="364" y="580"/>
      <point x="364" y="447" type="qcurve"/>
      <point x="364" y="264"/>
      <point x="530" y="88"/>
    </contour>
  </outline>
</glyph>
<glyph name="lambda" format="2">
  <advance width="1307"/>
  <unicode hex="03BB"/>
  <outline>
    <contour>
      <point x="150" y="0" type="line"/>
      <point x="125" y="36" type="line"/>
      <point x="348" y="535" type="line"/>
      <point x="527" y="1018" type="line"/>
      <point x="454" y="1232" type="line" smooth="yes"/>
      <point x="422" y="1327"/>
      <point x="348" y="1390"/>
      <point x="282" y="1402" type="qcurve" smooth="yes"/>
      <point x="192" y="1419" type="line"/>
      <point x="192" y="1499" type="line"/>
      <point x="368" y="1537" type="line"/>
      <point x="449" y="1537"/>
      <point x="542" y="1430"/>
      <point x="575" y="1332" type="qcurve" smooth="yes"/>
      <point x="718" y="909" type="line"/>
      <point x="954" y="258" type="line" smooth="yes"/>
      <point x="981" y="184"/>
      <point x="1039" y="109"/>
      <point x="1098" y="109" type="qcurve"/>
      <point x="1172" y="109" type="line"/>
      <point x="1172" y="29" type="line"/>
      <point x="996" y="-8" type="line"/>
      <point x="928" y="-8"/>
      <point x="856" y="62"/>
      <point x="816" y="176" type="qcurve" smooth="yes"/>
      <point x="612" y="762" type="line"/>
      <point x="586" y="846" type="line"/>
      <point x="576" y="846" type="line"/>
      <point x="539" y="731" type="line"/>
      <point x="453" y="494" type="line"/>
      <point x="311" y="21" type="line"/>
    </contour>
  </outline>
</glyph>
<glyph name="rho" format="2">
  <advance width="1356"/>
  <unicode hex="03C1"/>
  <outline>
    <contour>
      <point x="265" y="-480" type="line"/>
      <point x="422" y="-459" type="line"/>
      <point x="414" y="89" type="line"/>
      <point x="451" y="55"/>
      <point x="599" y="-12"/>
      <point x="688" y="-12" type="qcurve"/>
      <point x="928" y="-12"/>
      <point x="1172" y="265"/>
      <point x="1172" y="524" type="qcurve" smooth="yes"/>
      <point x="1172" y="767"/>
      <point x="932" y="1022"/>
      <point x="704" y="1022" type="qcurve"/>
      <point x="502" y="1022"/>
      <point x="250" y="727"/>
      <point x="250" y="450" type="qcurve"/>
      <point x="250" y="140" type="line"/>
      <point x="240" y="-444" type="line"/>
    </contour>
    <contour>
      <point x="688" y="91" type="qcurve"/>
      <point x="599" y="91"/>
      <point x="450" y="177"/>
      <point x="415" y="239" type="qcurve"/>
      <point x="415" y="451" type="line"/>
      <point x="415" y="686"/>
      <point x="542" y="906"/>
      <point x="705" y="906" type="qcurve"/>
      <point x="854" y="906"/>
      <point x="989" y="683"/>
      <point x="989" y="506" type="qcurve" smooth="yes"/>
      <point x="989" y="325"/>
      <point x="835" y="91"/>
    </contour>
  </outline>
</glyph>
<glyph name="phi" format="2">
  <advance width="1577"/>
  <unicode hex="03C6"/>
  <outline>
    <contour>
      <point x="722" y="-480" type="line"/>
      <point x="697" y="-444" type="line"/>
      <point x="705" y="25" type="line"/>
      <point x="712" y="25" type="line"/>
      <point x="722" y="955" type="line"/>
      <point x="715" y="955" type="line"/>
      <point x="720" y="1519" type="line"/>
      <point x="831" y="1534" type="line"/>
      <point x="856" y="1498" type="line"/>
      <point x="861" y="955" type="line"/>
      <point x="854" y="955" type="line"/>
      <point x="863" y="25" type="line"/>
      <point x="870" y="25" type="line"/>
      <point x="879" y="-459" type="line"/>
    </contour>
    <contour>
      <point x="788" y="-22" type="qcurve"/>
      <point x="498" y="-22"/>
      <point x="184" y="268"/>
      <point x="184" y="500" type="qcurve"/>
      <point x="184" y="731"/>
      <point x="498" y="1022"/>
      <point x="789" y="1022" type="qcurve"/>
      <point x="1079" y="1022"/>
      <point x="1393" y="732"/>
      <point x="1393" y="500" type="qcurve"/>
      <point x="1393" y="269"/>
      <point x="1079" y="-22"/>
    </contour>
    <contour>
      <point x="788" y="88" type="qcurve"/>
      <point x="1014" y="88"/>
      <point x="1207" y="316"/>
      <point x="1207" y="500" type="qcurve"/>
      <point x="1207" y="684"/>
      <point x="1011" y="906"/>
      <point x="789" y="906" type="qcurve"/>
      <point x="567" y="906"/>
      <point x="364" y="684"/>
      <point x="364" y="500" type="qcurve"/>
      <point x="364" y="316"/>
      <point x="563" y="88"/>
    </contour>
  </outline>
</glyph>
<glyph name="kaisymbol" format="2">
  <advance width="1423"/>
  <unicode hex="03D7"/>
  <outline>
    <contour>
      <point x="305" y="0" type="line"/>
      <point x="280" y="36" type="line"/>
      <point x="286" y="425" type="line"/>
      <point x="279" y="978" type="line"/>
      <point x="448" y="1000" type="line"/>
      <point x="473" y="964" type="line"/>
      <point x="456" y="427" type="line"/>
      <point x="462" y="21" type="line"/>
    </contour>
    <contour>
      <point x="366" y="99" type="line"/>
      <point x="366" y="261" type="line"/>
      <point x="806" y="851" type="line" smooth="yes"/>
      <point x="883" y="955"/>
      <point x="998" y="1008"/>
      <point x="1096" y="1010" type="qcurve"/>
      <point x="1121" y="974" type="line"/>
      <point x="1107" y="832" type="line"/>
      <point x="994" y="832"/>
      <point x="916" y="805"/>
      <point x="876" y="754" type="qcurve" smooth="yes"/>
    </contour>
    <contour>
      <point x="629" y="-510" type="qcurve" smooth="yes"/>
      <point x="458" y="-510"/>
      <point x="171" y="-351"/>
      <point x="85" y="-194" type="qcurve"/>
      <point x="166" y="-134" type="line"/>
      <point x="225" y="-220"/>
      <point x="457" y="-363"/>
      <point x="639" y="-363" type="qcurve" smooth="yes"/>
      <point x="867" y="-363"/>
      <point x="1058" y="-118"/>
      <point x="1080" y="12" type="qcurve"/>
      <point x="983" y="-8" type="line"/>
      <point x="929" y="-6"/>
      <point x="858" y="37"/>
      <point x="831" y="83" type="qcurve" smooth="yes"/>
      <point x="597" y="481" type="line"/>
      <point x="700" y="616" type="line"/>
      <point x="954" y="185" type="line" smooth="yes"/>
      <point x="983" y="136"/>
      <point x="1028" y="109"/>
      <point x="1085" y="109" type="qcurve" smooth="yes"/>
      <point x="1222" y="109" type="line"/>
      <point x="1240" y="-129"/>
      <point x="913" y="-510"/>
    </contour>
  </outline>
</glyph>
<glyph name="be" format="2">
  <advance width="1366"/>
  <unicode hex="0431"/>
  <outline>
    <contour>
      <point x="706" y="88" type="qcurve" smooth="yes"/>
      <point x="842" y="88"/>
      <point x="998" y="292"/>
      <point x="998" y="505" type="qcurve" smooth="yes"/>
      <point x="998" y="688"/>
      <point x="843" y="894"/>
      <point x="711" y="894" type="qcurve" smooth="yes"/>
      <point x="570" y="894"/>
      <point x="392" y="768"/>
      <point x="338" y="676" type="qcurve"/>
      <point x="300" y="748" type="line"/>
      <point x="370" y="873"/>
      <point x="588" y="1020"/>
      <point x="744" y="1020" type="qcurve" smooth="yes"/>
      <point x="945" y="1020"/>
      <point x="1182" y="754"/>
      <point x="1182" y="530" type="qcurve" smooth="yes"/>
      <point x="1182" y="271"/>
      <point x="928" y="-22"/>
      <point x="706" y="-22" type="qcurve" smooth="yes"/>
      <point x="458" y="-22"/>
      <point x="190" y="292"/>
      <point x="190" y="624" type="qcurve" smooth="yes"/>
      <point x="190" y="965"/>
      <point x="455" y="1400"/>
      <point x="772" y="1448" type="qcurve" smooth="yes"/>
      <point x="999" y="1483"/>
      <point x="1060" y="1513"/>
      <point x="1071" y="1537" type="qcurve"/>
      <point x="1151" y="1537" type="line"/>
      <point x="1140" y="1432"/>
      <point x="993" y="1307"/>
      <point x="779" y="1279" type="qcurve" smooth="yes"/>
      <point x="627" y="1260"/>
      <point x="456" y="1188"/>
      <point x="408" y="1118" type="qcurve" smooth="yes"/>
      <point x="370" y="1064"/>
      <point x="341" y="887"/>
      <point x="340" y="765" type="qcurve"/>
      <point x="375" y="765" type="line"/>
      <point x="370" y="674"/>
      <point x="370" y="625"/>
      <point x="370" y="537" type="qcurve" smooth="yes"/>
      <point x="370" y="319"/>
      <point x="555" y="88"/>
    </contour>
  </outline>
</glyph>
<glyph name="ze" format="2">
  <advance width="1214"/>
  <unicode hex="0437"/>
  <anchor x="630" y="0" name="bottom"/>
  <outline>
    <contour>
      <point x="639" y="-23" type="qcurve" smooth="yes"/>
      <point x="524" y="-23"/>
      <point x="389" y="22"/>
      <point x="358" y="43" type="qcurve"/>
      <point x="335" y="-7" type="line"/>
      <point x="240" y="-7" type="line"/>
      <point x="240" y="335" type="line"/>
      <point x="337" y="335" type="line"/>
      <point x="354" y="274" type="line" smooth="yes"/>
      <point x="378" y="188"/>
      <point x="490" y="88"/>
      <point x="620" y="88" type="qcurve" smooth="yes"/>
      <point x="733" y="88"/>
      <point x="860" y="188"/>
      <point x="860" y="286" type="qcurve" smooth="yes"/>
      <point x="860" y="364"/>
      <point x="755" y="454"/>
      <point x="657" y="454" type="qcurve" smooth="yes"/>
      <point x="468" y="454" type="line"/>
      <point x="468" y="554" type="line"/>
      <point x="616" y="554" type="line" smooth="yes"/>
      <point x="723" y="554"/>
      <point x="819" y="651"/>
      <point x="819" y="731" type="qcurve" smooth="yes"/>
      <point x="819" y="819"/>
      <point x="728" y="911"/>
      <point x="631" y="911" type="qcurve" smooth="yes"/>
      <point x="520" y="911"/>
      <point x="399" y="810"/>
      <point x="375" y="725" type="qcurve" smooth="yes"/>
      <point x="358" y="664" type="line"/>
      <point x="261" y="664" type="line"/>
      <point x="261" y="1006" type="line"/>
      <point x="356" y="1006" type="line"/>
      <point x="379" y="956" type="line"/>
      <point x="415" y="983"/>
      <point x="544" y="1022"/>
      <point x="642" y="1022" type="qcurve" smooth="yes"/>
      <point x="810" y="1022"/>
      <point x="984" y="882"/>
      <point x="984" y="763" type="qcurve" smooth="yes"/>
      <point x="984" y="673"/>
      <point x="886" y="547"/>
      <point x="797" y="525" type="qcurve"/>
      <point x="797" y="521" type="line"/>
      <point x="911" y="505"/>
      <point x="1029" y="379"/>
      <point x="1029" y="276" type="qcurve" smooth="yes"/>
      <point x="1029" y="138"/>
      <point x="820" y="-23"/>
    </contour>
  </outline>
</glyph>
<glyph name="icyr" format="2">
  <advance width="1522"/>
  <unicode hex="0438"/>
  <guideline x="302" y="625" angle="90.0" identifier="jHuxcyi1x5"/>
  <guideline x="973" y="554" angle="90.0" identifier="b1mHk7wgTR"/>
  <guideline x="627" y="553" angle="90.0" identifier="m4aYe0x4PZ"/>
  <guideline x="641" y="891" angle="90.0" identifier="cgCypNhhfk"/>
  <anchor x="761" y="0" name="bottom"/>
  <anchor x="761" y="1000" name="top"/>
  <outline>
    <contour>
      <point x="412" y="255" type="line"/>
      <point x="730" y="529" type="line"/>
      <point x="1040" y="813" type="line"/>
      <point x="1121" y="753" type="line"/>
      <point x="788" y="459" type="line"/>
      <point x="493" y="195" type="line"/>
    </contour>
    <contour>
      <point x="350" y="500" type="line"/>
      <point x="348" y="885" type="line"/>
      <point x="200" y="920" type="line"/>
      <point x="200" y="1000" type="line"/>
      <point x="656" y="1000" type="line"/>
      <point x="656" y="920" type="line"/>
      <point x="518" y="885" type="line"/>
      <point x="516" y="500" type="line"/>
      <point x="518" y="115" type="line"/>
      <point x="656" y="80" type="line"/>
      <point x="656" y="0" type="line"/>
      <point x="200" y="0" type="line"/>
      <point x="200" y="80" type="line"/>
      <point x="348" y="115" type="line"/>
    </contour>
    <contour>
      <point x="1176" y="500" type="line"/>
      <point x="1178" y="115" type="line"/>
      <point x="1326" y="80" type="line"/>
      <point x="1326" y="0" type="line"/>
      <point x="870" y="0" type="line"/>
      <point x="870" y="80" type="line"/>
      <point x="1008" y="115" type="line"/>
      <point x="1010" y="500" type="line"/>
      <point x="1008" y="885" type="line"/>
      <point x="870" y="920" type="line"/>
      <point x="870" y="1000" type="line"/>
      <point x="1326" y="1000" type="line"/>
      <point x="1326" y="920" type="line"/>
      <point x="1178" y="885" type="line"/>
    </contour>
  </outline>
</glyph>
<glyph name="hard" format="2">
  <advance width="1493"/>
  <unicode hex="044A"/>
  <guideline x="302" y="625" angle="90.0" identifier="0glbwjr6f1"/>
  <guideline x="953" y="554" angle="90.0" identifier="41A0uQDzZV"/>
  <guideline x="627" y="553" angle="90.0" identifier="rA3XBl1QkZ"/>
  <guideline x="302" y="625" angle="90.0" identifier="9bXjTXCOsd"/>
  <guideline x="953" y="554" angle="90.0" identifier="70YHiu6Ygv"/>
  <guideline x="627" y="553" angle="90.0" identifier="lr0dX83lJL"/>
  <outline>
    <contour>
      <point x="861" y="1000" type="line"/>
      <point x="861" y="920" type="line"/>
      <point x="713" y="885" type="line"/>
      <point x="711" y="500" type="line"/>
      <point x="713" y="105" type="line"/>
      <point x="901" y="105" type="line" smooth="yes"/>
      <point x="1026" y="105"/>
      <point x="1127" y="224"/>
      <point x="1127" y="314" type="qcurve" smooth="yes"/>
      <point x="1127" y="402"/>
      <point x="1026" y="516"/>
      <point x="901" y="516" type="qcurve" smooth="yes"/>
      <point x="628" y="516" type="line"/>
      <point x="628" y="621" type="line"/>
      <point x="901" y="621" type="line" smooth="yes"/>
      <point x="1099" y="621"/>
      <point x="1313" y="455"/>
      <point x="1313" y="314" type="qcurve" smooth="yes"/>
      <point x="1313" y="172"/>
      <point x="1099" y="0"/>
      <point x="901" y="0" type="qcurve" smooth="yes"/>
      <point x="395" y="0" type="line"/>
      <point x="395" y="80" type="line"/>
      <point x="543" y="115" type="line"/>
      <point x="545" y="500" type="line"/>
      <point x="543" y="895" type="line"/>
      <point x="326" y="895" type="line"/>
      <point x="280" y="662" type="line"/>
      <point x="180" y="662" type="line"/>
      <point x="180" y="1000" type="line"/>
    </contour>
  </outline>
</glyph>
<glyph name="kabashkircyr" format="2">
  <advance width="1616"/>
  <unicode hex="04A1"/>
  <guideline x="302" y="625" angle="90.0" identifier="0glbwjr6f1"/>
  <guideline x="953" y="554" angle="90.0" identifier="41A0uQDzZV"/>
  <guideline x="627" y="553" angle="90.0" identifier="rA3XBl1QkZ"/>
  <guideline x="241" y="553" angle="90.0" identifier="UwAftolvUF"/>
  <outline>
    <contour>
      <point x="558" y="895" type="line"/>
      <point x="326" y="895" type="line"/>
      <point x="280" y="662" type="line"/>
      <point x="180" y="662" type="line"/>
      <point x="180" y="1000" type="line"/>
      <point x="866" y="1000" type="line"/>
      <point x="866" y="920" type="line"/>
      <point x="728" y="885" type="line"/>
      <point x="726" y="500" type="line"/>
      <point x="728" y="115" type="line"/>
      <point x="866" y="80" type="line"/>
      <point x="866" y="0" type="line"/>
      <point x="410" y="0" type="line"/>
      <point x="410" y="80" type="line"/>
      <point x="558" y="115" type="line"/>
      <point x="560" y="500" type="line"/>
    </contour>
    <contour>
      <point x="643" y="567" type="line"/>
      <point x="872" y="564" type="line"/>
      <point x="1168" y="880" type="line"/>
      <point x="1001" y="920" type="line"/>
      <point x="1001" y="1000" type="line"/>
      <point x="1447" y="1000" type="line"/>
      <point x="1447" y="920" type="line"/>
      <point x="1289" y="875" type="line"/>
      <point x="905" y="473" type="line"/>
      <point x="896" y="464" type="line"/>
      <point x="643" y="462" type="line"/>
    </contour>
    <contour>
      <point x="864" y="484" type="line"/>
      <point x="967" y="586" type="line"/>
      <point x="1364" y="115" type="line"/>
      <point x="1482" y="80" type="line"/>
      <point x="1482" y="0" type="line"/>
      <point x="1183" y="0" type="line"/>
      <point x="1171" y="79" type="line"/>
      <point x="1180" y="111" type="line"/>
    </contour>
  </outline>
</glyph>
<glyph name="ustraight" format="2">
  <advance width="1266"/>
  <unicode hex="04AF"/>
  <anchor x="633" y="-63" name="center"/>
  <outline>
    <contour>
      <point x="110" y="910" type="line"/>
      <point x="110" y="1000" type="line"/>
      <point x="534" y="1000" type="line"/>
      <point x="534" y="910" type="line"/>
      <point x="401" y="873" type="line"/>
      <point x="527" y="479" type="line"/>
      <point x="606" y="250" type="line"/>
      <point x="643" y="136" type="line"/>
      <point x="653" y="136" type="line"/>
      <point x="692" y="250" type="line"/>
      <point x="773" y="482" type="line"/>
      <point x="897" y="880" type="line"/>
      <point x="760" y="910" type="line"/>
      <point x="760" y="1000" type="line"/>
      <point x="1176" y="1000" type="line"/>
      <point x="1176" y="910" type="line"/>
      <point x="1028" y="875" type="line"/>
      <point x="875" y="441" type="line"/>
      <point x="716" y="0" type="line"/>
      <point x="717" y="-365" type="line"/>
      <point x="865" y="-400" type="line"/>
      <point x="865" y="-480" type="line"/>
      <point x="399" y="-480" type="line"/>
      <point x="399" y="-400" type="line"/>
      <point x="547" y="-365" type="line"/>
      <point x="548" y="0" type="line"/>
      <point x="390" y="425" type="line"/>
      <point x="228" y="875" type="line"/>
    </contour>
  </outline>
</glyph>
<glyph name="cheverticalstroke-cy" format="2">
  <advance width="1477"/>
  <unicode hex="04B9"/>
  <guideline x="302" y="625" angle="90.0" identifier="ghzYOvRP0g"/>
  <guideline x="953" y="554" angle="90.0" identifier="yWzP0ZeDvZ"/>
  <guideline x="627" y="553" angle="90.0" identifier="2rptuWkdhO"/>
  <outline>
    <contour>
      <point x="781" y="762" type="line"/>
      <point x="781" y="170" type="line"/>
      <point x="666" y="170" type="line"/>
      <point x="666" y="762" type="line"/>
    </contour>
    <contour>
      <point x="487" y="711" type="line" smooth="yes"/>
      <point x="486" y="591"/>
      <point x="602" y="493"/>
      <point x="730" y="493" type="qcurve" smooth="yes"/>
      <point x="816" y="493"/>
      <point x="964" y="519"/>
      <point x="1044" y="552" type="qcurve"/>
      <point x="1044" y="459" type="line"/>
      <point x="966" y="425"/>
      <point x="803" y="393"/>
      <point x="693" y="393" type="qcurve" smooth="yes"/>
      <point x="519" y="393"/>
      <point x="322" y="545"/>
      <point x="320" y="711" type="qcurve" smooth="yes"/>
      <point x="318" y="885" type="line"/>
      <point x="170" y="920" type="line"/>
      <point x="170" y="1000" type="line"/>
      <point x="626" y="1000" type="line"/>
      <point x="626" y="920" type="line"/>
      <point x="488" y="885" type="line"/>
    </contour>
    <contour>
      <point x="1127" y="500" type="line"/>
      <point x="1129" y="115" type="line"/>
      <point x="1277" y="80" type="line"/>
      <point x="1277" y="0" type="line"/>
      <point x="801" y="0" type="line"/>
      <point x="801" y="80" type="line"/>
      <point x="959" y="115" type="line"/>
      <point x="961" y="500" type="line"/>
      <point x="959" y="885" type="line"/>
      <point x="821" y="920" type="line"/>
      <point x="821" y="1000" type="line"/>
      <point x="1277" y="1000" type="line"/>
      <point x="1277" y="920" type="line"/>
      <point x="1129" y="885" type="line"/>
    </contour>
  </outline>
</glyph>
<glyph name="endash" format="2">
  <advance width="1264"/>
  <unicode hex="2013"/>
  <outline>
    <contour>
      <point x="120" y="562" type="line"/>
      <point x="120" y="700" type="line"/>
      <point x="623" y="702" type="line"/>
      <point x="1144" y="700" type="line"/>
      <point x="1144" y="562" type="line"/>
      <point x="623" y="556" type="line"/>
    </contour>
  </outline>
</glyph>
<glyph name="dagger" format="2">
  <advance width="1208"/>
  <unicode hex="2020"/>
  <outline>
    <contour>
      <point x="599" y="-540" type="line"/>
      <point x="521" y="-58" type="line"/>
      <point x="545" y="550" type="line"/>
      <point x="543" y="830" type="line"/>
      <point x="511" y="1438" type="line"/>
      <point x="561" y="1503" type="line"/>
      <point x="641" y="1506" type="line"/>
      <point x="687" y="1438" type="line"/>
      <point x="663" y="830" type="line"/>
      <point x="665" y="550" type="line"/>
      <point x="687" y="-58" type="line"/>
      <point x="619" y="-540" type="line"/>
    </contour>
    <contour>
      <point x="192" y="852" type="line"/>
      <point x="192" y="1000" type="line"/>
      <point x="605" y="992" type="line"/>
      <point x="1016" y="1000" type="line"/>
      <point x="1016" y="852" type="line"/>
      <point x="605" y="856" type="line"/>
    </contour>
  </outline>
</glyph>
<glyph name="bullet" format="2">
  <advance width="1024"/>
  <unicode hex="2022"/>
  <outline>
    <contour>
      <point x="224" y="773" type="qcurve" smooth="yes"/>
      <point x="224" y="889"/>
      <point x="386" y="1061"/>
      <point x="512" y="1061" type="qcurve" smooth="yes"/>
      <point x="638" y="1061"/>
      <point x="800" y="889"/>
      <point x="800" y="773" type="qcurve" smooth="yes"/>
      <point x="800" y="659"/>
      <point x="638" y="487"/>
      <point x="512" y="487" type="qcurve" smooth="yes"/>
      <point x="386" y="487"/>
      <point x="224" y="659"/>
    </contour>
  </outline>
</glyph>
<glyph name="guilsinglleft" format="2">
  <advance width="1087"/>
  <unicode hex="2039"/>
  <outline>
    <contour>
      <point x="145" y="624" type="line"/>
      <point x="229" y="672"/>
      <point x="726" y="979"/>
      <point x="798" y="1024" type="qcurve" smooth="yes"/>
      <point x="868" y="1068"/>
      <point x="950" y="971"/>
      <point x="884" y="925" type="qcurve" smooth="yes"/>
      <point x="793" y="861"/>
      <point x="429" y="629"/>
      <point x="399" y="613" type="qcurve"/>
      <point x="429" y="591"/>
      <point x="795" y="347"/>
      <point x="888" y="283" type="qcurve" smooth="yes"/>
      <point x="953" y="239"/>
      <point x="890" y="136"/>
      <point x="817" y="174" type="qcurve" smooth="yes"/>
      <point x="751" y="208"/>
      <point x="220" y="536"/>
      <point x="145" y="584" type="qcurve"/>
    </contour>
  </outline>
</glyph>
<glyph name="divisionslash" format="2">
  <advance width="896"/>
  <unicode hex="2215"/>
  <outline>
    <contour>
      <point x="58" y="-118" type="line"/>
      <point x="674" y="1555" type="line"/>
      <point x="815" y="1512" type="line"/>
      <point x="199" y="-161" type="line"/>
    </contour>
  </outline>
</glyph>
<glyph name="f_f_l" format="2">
  <advance width="2131"/>
  <unicode hex="FB04"/>
  <outline>
    <contour>
      <point x="174" y="0" type="line"/>
      <point x="174" y="80" type="line"/>
      <point x="342" y="115" type="line"/>
      <point x="344" y="527" type="line"/>
      <point x="341" y="860" type="line"/>
      <point x="188" y="872" type="line"/>
      <point x="178" y="966" type="line"/>
      <point x="343" y="984" type="line"/>
      <point x="347" y="1192" type="line" smooth="yes"/>
      <point x="350" y="1337"/>
      <point x="500" y="1482"/>
      <point x="600" y="1482" type="qcurve" smooth="yes"/>
      <point x="642" y="1482"/>
      <point x="728" y="1469"/>
      <point x="760" y="1462" type="qcurve" smooth="yes"/>
      <point x="786" y="1456" type="line"/>
      <point x="770" y="1349" type="line"/>
      <point x="747" y="1356" type="line" smooth="yes"/>
      <point x="725" y="1363"/>
      <point x="684" y="1370"/>
      <point x="664" y="1370" type="qcurve" smooth="yes"/>
      <point x="590" y="1370"/>
      <point x="502" y="1278"/>
      <point x="503" y="1157" type="qcurve" smooth="yes"/>
      <point x="505" y="985" type="line"/>
      <point x="974" y="985" type="line"/>
      <point x="978" y="1323" type="line" smooth="yes"/>
      <point x="979" y="1422"/>
      <point x="1111" y="1537"/>
      <point x="1211" y="1537" type="qcurve" smooth="yes"/>
      <point x="1244" y="1537"/>
      <point x="1320" y="1529"/>
      <point x="1349" y="1523" type="qcurve" smooth="yes"/>
      <point x="1421" y="1507" type="line"/>
      <point x="1727" y="1534" type="line"/>
      <point x="1764" y="1532" type="line"/>
      <point x="1787" y="1501" type="line"/>
      <point x="1785" y="527" type="line"/>
      <point x="1787" y="115" type="line"/>
      <point x="1945" y="80" type="line"/>
      <point x="1945" y="0" type="line"/>
      <point x="1475" y="0" type="line"/>
      <point x="1475" y="80" type="line"/>
      <point x="1617" y="115" type="line"/>
      <point x="1619" y="527" type="line"/>
      <point x="1617" y="1395" type="line"/>
      <point x="1330" y="1422" type="line" smooth="yes"/>
      <point x="1314" y="1424"/>
      <point x="1291" y="1425"/>
      <point x="1275" y="1425" type="qcurve" smooth="yes"/>
      <point x="1206" y="1425"/>
      <point x="1134" y="1361"/>
      <point x="1134" y="1288" type="qcurve" smooth="yes"/>
      <point x="1136" y="985" type="line"/>
      <point x="1422" y="985" type="line"/>
      <point x="1422" y="883" type="line"/>
      <point x="1136" y="872" type="line"/>
      <point x="1138" y="527" type="line"/>
      <point x="1152" y="115" type="line"/>
      <point x="1324" y="80" type="line"/>
      <point x="1324" y="0" type="line"/>
      <point x="835" y="0" type="line"/>
      <point x="835" y="80" type="line"/>
      <point x="973" y="115" type="line"/>
      <point x="975" y="527" type="line"/>
      <point x="972" y="849" type="line"/>
      <point x="962" y="870" type="line"/>
      <point x="505" y="877" type="line"/>
      <point x="507" y="527" type="line"/>
      <point x="521" y="115" type="line"/>
      <point x="684" y="80" type="line"/>
      <point x="684" y="0" type="line"/>
    </contour>
  </outline>
</glyph>
<glyph name="engtail" format="2">
  <advance width="869"/>
  <anchor x="642" y="0" name="_engtail"/>
  <outline>
    <contour>
      <point x="539" y="190" type="line"/>
      <point x="642" y="190" type="line"/>
      <point x="642" y="-195" type="line" smooth="yes"/>
      <point x="642" y="-295"/>
      <point x="521" y="-443"/>
      <point x="389" y="-443" type="qcurve" smooth="yes"/>
      <point x="317" y="-443"/>
      <point x="187" y="-381"/>
      <point x="147" y="-329" type="qcurve"/>
      <point x="210" y="-254" type="line"/>
      <point x="252" y="-295"/>
      <point x="327" y="-325"/>
      <point x="368" y="-325" type="qcurve" smooth="yes"/>
      <point x="412" y="-325"/>
      <point x="476" y="-265"/>
      <point x="476" y="-165" type="qcurve" smooth="yes"/>
      <point x="476" y="-86"/>
      <point x="476" y="150"/>
      <point x="476" y="150" type="qcurve"/>
    </contour>
  </outline>
</glyph>
